<mxfile host="app.diagrams.net" agent="Mozilla/5.0 (Windows NT 10.0; Win64; x64) AppleWebKit/537.36 (KHTML, like Gecko) Chrome/134.0.0.0 Safari/537.36" version="26.1.1">
  <diagram name="网络关系图 - 新设计" id="T0NNr2-d_XMmImwdZqJt">
    <mxGraphModel dx="1221" dy="652" grid="1" gridSize="10" guides="1" tooltips="1" connect="1" arrows="1" fold="1" page="1" pageScale="1" pageWidth="827" pageHeight="1169" math="0" shadow="0">
      <root>
        <mxCell id="0" />
        <mxCell id="1" parent="0" />
        <mxCell id="O9Zofe9HGtcKiM1Daw7x-1" value="生活中常见的异质图" style="text;html=1;strokeColor=none;fillColor=none;align=center;verticalAlign=middle;whiteSpace=wrap;rounded=0;fontSize=20;fontStyle=1" vertex="1" parent="1">
          <mxGeometry x="439.5" y="400" width="330" height="30" as="geometry" />
        </mxCell>
        <mxCell id="O9Zofe9HGtcKiM1Daw7x-2" value="引用网络" style="text;html=1;strokeColor=none;fillColor=none;align=center;verticalAlign=middle;whiteSpace=wrap;rounded=0;fontSize=16;fontStyle=1" vertex="1" parent="1">
          <mxGeometry x="230" y="67.5" width="160" height="30" as="geometry" />
        </mxCell>
        <mxCell id="O9Zofe9HGtcKiM1Daw7x-3" value="a₁" style="ellipse;whiteSpace=wrap;html=1;aspect=fixed;fillColor=#3498DB;strokeColor=none;fontColor=#FFFFFF;fontSize=14;fontStyle=1" vertex="1" parent="1">
          <mxGeometry x="235" y="132.5" width="40" height="40" as="geometry" />
        </mxCell>
        <mxCell id="O9Zofe9HGtcKiM1Daw7x-4" value="a₂" style="ellipse;whiteSpace=wrap;html=1;aspect=fixed;fillColor=#3498DB;strokeColor=none;fontColor=#FFFFFF;fontSize=14;fontStyle=1" vertex="1" parent="1">
          <mxGeometry x="355" y="252.5" width="40" height="40" as="geometry" />
        </mxCell>
        <mxCell id="O9Zofe9HGtcKiM1Daw7x-5" value="p₁" style="rounded=1;whiteSpace=wrap;html=1;fillColor=#2ECC71;strokeColor=none;fontColor=#FFFFFF;fontSize=14;fontStyle=1" vertex="1" parent="1">
          <mxGeometry x="295" y="132.5" width="40" height="40" as="geometry" />
        </mxCell>
        <mxCell id="O9Zofe9HGtcKiM1Daw7x-6" value="p₂" style="rounded=1;whiteSpace=wrap;html=1;fillColor=#2ECC71;strokeColor=none;fontColor=#FFFFFF;fontSize=14;fontStyle=1" vertex="1" parent="1">
          <mxGeometry x="295" y="192.5" width="40" height="40" as="geometry" />
        </mxCell>
        <mxCell id="O9Zofe9HGtcKiM1Daw7x-7" value="c₁" style="shape=hexagon;perimeter=hexagonPerimeter2;whiteSpace=wrap;html=1;fixedSize=1;fillColor=#E74C3C;strokeColor=none;fontColor=#FFFFFF;fontSize=14;fontStyle=1" vertex="1" parent="1">
          <mxGeometry x="235" y="252.5" width="40" height="40" as="geometry" />
        </mxCell>
        <mxCell id="O9Zofe9HGtcKiM1Daw7x-8" value="c₂" style="shape=hexagon;perimeter=hexagonPerimeter2;whiteSpace=wrap;html=1;fixedSize=1;fillColor=#E74C3C;strokeColor=none;fontColor=#FFFFFF;fontSize=14;fontStyle=1" vertex="1" parent="1">
          <mxGeometry x="355" y="132.5" width="40" height="40" as="geometry" />
        </mxCell>
        <mxCell id="O9Zofe9HGtcKiM1Daw7x-9" value="" style="endArrow=none;html=1;rounded=0;strokeWidth=2;strokeColor=#95A5A6;" edge="1" parent="1" source="O9Zofe9HGtcKiM1Daw7x-3" target="O9Zofe9HGtcKiM1Daw7x-5">
          <mxGeometry width="50" height="50" relative="1" as="geometry">
            <mxPoint x="495" y="392.5" as="sourcePoint" />
            <mxPoint x="545" y="342.5" as="targetPoint" />
          </mxGeometry>
        </mxCell>
        <mxCell id="O9Zofe9HGtcKiM1Daw7x-10" value="" style="endArrow=none;html=1;rounded=0;strokeWidth=2;strokeColor=#95A5A6;" edge="1" parent="1" source="O9Zofe9HGtcKiM1Daw7x-3" target="O9Zofe9HGtcKiM1Daw7x-6">
          <mxGeometry width="50" height="50" relative="1" as="geometry">
            <mxPoint x="495" y="392.5" as="sourcePoint" />
            <mxPoint x="545" y="342.5" as="targetPoint" />
          </mxGeometry>
        </mxCell>
        <mxCell id="O9Zofe9HGtcKiM1Daw7x-11" value="" style="endArrow=none;html=1;rounded=0;strokeWidth=2;strokeColor=#95A5A6;" edge="1" parent="1" source="O9Zofe9HGtcKiM1Daw7x-5" target="O9Zofe9HGtcKiM1Daw7x-8">
          <mxGeometry width="50" height="50" relative="1" as="geometry">
            <mxPoint x="495" y="392.5" as="sourcePoint" />
            <mxPoint x="545" y="342.5" as="targetPoint" />
          </mxGeometry>
        </mxCell>
        <mxCell id="O9Zofe9HGtcKiM1Daw7x-12" value="" style="endArrow=none;html=1;rounded=0;strokeWidth=2;strokeColor=#95A5A6;" edge="1" parent="1" source="O9Zofe9HGtcKiM1Daw7x-6" target="O9Zofe9HGtcKiM1Daw7x-7">
          <mxGeometry width="50" height="50" relative="1" as="geometry">
            <mxPoint x="495" y="392.5" as="sourcePoint" />
            <mxPoint x="545" y="342.5" as="targetPoint" />
          </mxGeometry>
        </mxCell>
        <mxCell id="O9Zofe9HGtcKiM1Daw7x-13" value="" style="endArrow=none;html=1;rounded=0;strokeWidth=2;strokeColor=#95A5A6;" edge="1" parent="1" source="O9Zofe9HGtcKiM1Daw7x-6" target="O9Zofe9HGtcKiM1Daw7x-4">
          <mxGeometry width="50" height="50" relative="1" as="geometry">
            <mxPoint x="495" y="392.5" as="sourcePoint" />
            <mxPoint x="545" y="342.5" as="targetPoint" />
          </mxGeometry>
        </mxCell>
        <mxCell id="O9Zofe9HGtcKiM1Daw7x-14" value="图例：" style="text;html=1;strokeColor=none;fillColor=none;align=left;verticalAlign=middle;whiteSpace=wrap;fontSize=12;" vertex="1" parent="1">
          <mxGeometry x="235" y="312.5" width="40" height="20" as="geometry" />
        </mxCell>
        <mxCell id="O9Zofe9HGtcKiM1Daw7x-15" value="" style="ellipse;whiteSpace=wrap;html=1;aspect=fixed;fillColor=#3498DB;strokeColor=none;" vertex="1" parent="1">
          <mxGeometry x="235" y="342.5" width="15" height="15" as="geometry" />
        </mxCell>
        <mxCell id="O9Zofe9HGtcKiM1Daw7x-16" value="作者" style="text;html=1;strokeColor=none;fillColor=none;align=left;verticalAlign=middle;whiteSpace=wrap;fontSize=12;" vertex="1" parent="1">
          <mxGeometry x="260" y="340" width="40" height="20" as="geometry" />
        </mxCell>
        <mxCell id="O9Zofe9HGtcKiM1Daw7x-17" value="" style="rounded=1;whiteSpace=wrap;html=1;fillColor=#2ECC71;strokeColor=none;" vertex="1" parent="1">
          <mxGeometry x="315" y="342.5" width="15" height="15" as="geometry" />
        </mxCell>
        <mxCell id="O9Zofe9HGtcKiM1Daw7x-18" value="论文" style="text;html=1;strokeColor=none;fillColor=none;align=left;verticalAlign=middle;whiteSpace=wrap;fontSize=12;" vertex="1" parent="1">
          <mxGeometry x="340" y="340" width="40" height="20" as="geometry" />
        </mxCell>
        <mxCell id="O9Zofe9HGtcKiM1Daw7x-19" value="" style="shape=hexagon;perimeter=hexagonPerimeter2;whiteSpace=wrap;html=1;fixedSize=1;fillColor=#E74C3C;strokeColor=none;" vertex="1" parent="1">
          <mxGeometry x="390" y="342.5" width="15" height="15" as="geometry" />
        </mxCell>
        <mxCell id="O9Zofe9HGtcKiM1Daw7x-20" value="会议" style="text;html=1;strokeColor=none;fillColor=none;align=left;verticalAlign=middle;whiteSpace=wrap;fontSize=12;" vertex="1" parent="1">
          <mxGeometry x="415" y="340" width="40" height="20" as="geometry" />
        </mxCell>
        <mxCell id="O9Zofe9HGtcKiM1Daw7x-21" value="电商网络" style="text;html=1;strokeColor=none;fillColor=none;align=center;verticalAlign=middle;whiteSpace=wrap;rounded=0;fontSize=16;fontStyle=1" vertex="1" parent="1">
          <mxGeometry x="504.5" y="70" width="160" height="30" as="geometry" />
        </mxCell>
        <mxCell id="O9Zofe9HGtcKiM1Daw7x-22" value="u₁" style="ellipse;whiteSpace=wrap;html=1;aspect=fixed;fillColor=#9B59B6;strokeColor=none;fontColor=#FFFFFF;fontSize=14;fontStyle=1" vertex="1" parent="1">
          <mxGeometry x="484.5" y="120" width="40" height="40" as="geometry" />
        </mxCell>
        <mxCell id="O9Zofe9HGtcKiM1Daw7x-23" value="u₂" style="ellipse;whiteSpace=wrap;html=1;aspect=fixed;fillColor=#9B59B6;strokeColor=none;fontColor=#FFFFFF;fontSize=14;fontStyle=1" vertex="1" parent="1">
          <mxGeometry x="484.5" y="220" width="40" height="40" as="geometry" />
        </mxCell>
        <mxCell id="O9Zofe9HGtcKiM1Daw7x-24" value="i₁" style="rounded=0;whiteSpace=wrap;html=1;fillColor=#F1C40F;strokeColor=none;fontColor=#FFFFFF;fontSize=14;fontStyle=1" vertex="1" parent="1">
          <mxGeometry x="564.5" y="120" width="40" height="40" as="geometry" />
        </mxCell>
        <mxCell id="O9Zofe9HGtcKiM1Daw7x-25" value="i₂" style="rounded=0;whiteSpace=wrap;html=1;fillColor=#F1C40F;strokeColor=none;fontColor=#FFFFFF;fontSize=14;fontStyle=1" vertex="1" parent="1">
          <mxGeometry x="564.5" y="170" width="40" height="40" as="geometry" />
        </mxCell>
        <mxCell id="O9Zofe9HGtcKiM1Daw7x-26" value="i₃" style="rounded=0;whiteSpace=wrap;html=1;fillColor=#F1C40F;strokeColor=none;fontColor=#FFFFFF;fontSize=14;fontStyle=1" vertex="1" parent="1">
          <mxGeometry x="564.5" y="220" width="40" height="40" as="geometry" />
        </mxCell>
        <mxCell id="O9Zofe9HGtcKiM1Daw7x-27" value="s₁" style="shape=trapezoid;perimeter=trapezoidPerimeter;whiteSpace=wrap;html=1;fixedSize=1;fillColor=#E67E22;strokeColor=none;fontColor=#FFFFFF;fontSize=14;fontStyle=1" vertex="1" parent="1">
          <mxGeometry x="644.5" y="150" width="40" height="40" as="geometry" />
        </mxCell>
        <mxCell id="O9Zofe9HGtcKiM1Daw7x-28" value="s₂" style="shape=trapezoid;perimeter=trapezoidPerimeter;whiteSpace=wrap;html=1;fixedSize=1;fillColor=#E67E22;strokeColor=none;fontColor=#FFFFFF;fontSize=14;fontStyle=1" vertex="1" parent="1">
          <mxGeometry x="644.5" y="220" width="40" height="40" as="geometry" />
        </mxCell>
        <mxCell id="O9Zofe9HGtcKiM1Daw7x-29" value="" style="endArrow=none;html=1;rounded=1;strokeWidth=2;strokeColor=#95A5A6;exitX=1;exitY=0.5;exitDx=0;exitDy=0;entryX=0;entryY=0.5;entryDx=0;entryDy=0;curved=1;" edge="1" parent="1" source="O9Zofe9HGtcKiM1Daw7x-22" target="O9Zofe9HGtcKiM1Daw7x-24">
          <mxGeometry width="50" height="50" relative="1" as="geometry">
            <mxPoint x="559.5" y="360" as="sourcePoint" />
            <mxPoint x="609.5" y="310" as="targetPoint" />
          </mxGeometry>
        </mxCell>
        <mxCell id="O9Zofe9HGtcKiM1Daw7x-30" value="" style="endArrow=none;html=1;rounded=1;strokeWidth=2;strokeColor=#95A5A6;exitX=1;exitY=0.5;exitDx=0;exitDy=0;entryX=0;entryY=0.5;entryDx=0;entryDy=0;curved=1;" edge="1" parent="1" source="O9Zofe9HGtcKiM1Daw7x-22" target="O9Zofe9HGtcKiM1Daw7x-25">
          <mxGeometry width="50" height="50" relative="1" as="geometry">
            <mxPoint x="559.5" y="360" as="sourcePoint" />
            <mxPoint x="609.5" y="310" as="targetPoint" />
            <Array as="points">
              <mxPoint x="539.5" y="160" />
            </Array>
          </mxGeometry>
        </mxCell>
        <mxCell id="O9Zofe9HGtcKiM1Daw7x-31" value="" style="endArrow=none;html=1;rounded=1;strokeWidth=2;strokeColor=#95A5A6;exitX=1;exitY=0.5;exitDx=0;exitDy=0;entryX=0;entryY=0.5;entryDx=0;entryDy=0;curved=1;" edge="1" parent="1" source="O9Zofe9HGtcKiM1Daw7x-23" target="O9Zofe9HGtcKiM1Daw7x-25">
          <mxGeometry width="50" height="50" relative="1" as="geometry">
            <mxPoint x="559.5" y="360" as="sourcePoint" />
            <mxPoint x="609.5" y="310" as="targetPoint" />
            <Array as="points">
              <mxPoint x="539.5" y="200" />
            </Array>
          </mxGeometry>
        </mxCell>
        <mxCell id="O9Zofe9HGtcKiM1Daw7x-32" value="" style="endArrow=none;html=1;rounded=1;strokeWidth=2;strokeColor=#95A5A6;exitX=1;exitY=0.5;exitDx=0;exitDy=0;entryX=0;entryY=0.5;entryDx=0;entryDy=0;curved=1;" edge="1" parent="1" source="O9Zofe9HGtcKiM1Daw7x-23" target="O9Zofe9HGtcKiM1Daw7x-26">
          <mxGeometry width="50" height="50" relative="1" as="geometry">
            <mxPoint x="559.5" y="360" as="sourcePoint" />
            <mxPoint x="609.5" y="310" as="targetPoint" />
          </mxGeometry>
        </mxCell>
        <mxCell id="O9Zofe9HGtcKiM1Daw7x-33" value="" style="endArrow=none;html=1;rounded=1;strokeWidth=2;strokeColor=#95A5A6;exitX=1;exitY=0.5;exitDx=0;exitDy=0;entryX=0;entryY=0.5;entryDx=0;entryDy=0;curved=1;" edge="1" parent="1" source="O9Zofe9HGtcKiM1Daw7x-24" target="O9Zofe9HGtcKiM1Daw7x-27">
          <mxGeometry width="50" height="50" relative="1" as="geometry">
            <mxPoint x="559.5" y="360" as="sourcePoint" />
            <mxPoint x="609.5" y="310" as="targetPoint" />
            <Array as="points">
              <mxPoint x="619.5" y="140" />
            </Array>
          </mxGeometry>
        </mxCell>
        <mxCell id="O9Zofe9HGtcKiM1Daw7x-34" value="" style="endArrow=none;html=1;rounded=1;strokeWidth=2;strokeColor=#95A5A6;exitX=1;exitY=0.5;exitDx=0;exitDy=0;entryX=0;entryY=0.5;entryDx=0;entryDy=0;curved=1;" edge="1" parent="1" source="O9Zofe9HGtcKiM1Daw7x-25" target="O9Zofe9HGtcKiM1Daw7x-27">
          <mxGeometry width="50" height="50" relative="1" as="geometry">
            <mxPoint x="559.5" y="360" as="sourcePoint" />
            <mxPoint x="609.5" y="310" as="targetPoint" />
          </mxGeometry>
        </mxCell>
        <mxCell id="O9Zofe9HGtcKiM1Daw7x-35" value="" style="endArrow=none;html=1;rounded=1;strokeWidth=2;strokeColor=#95A5A6;exitX=1;exitY=0.5;exitDx=0;exitDy=0;entryX=0;entryY=0.5;entryDx=0;entryDy=0;curved=1;" edge="1" parent="1" source="O9Zofe9HGtcKiM1Daw7x-26" target="O9Zofe9HGtcKiM1Daw7x-28">
          <mxGeometry width="50" height="50" relative="1" as="geometry">
            <mxPoint x="559.5" y="360" as="sourcePoint" />
            <mxPoint x="609.5" y="310" as="targetPoint" />
          </mxGeometry>
        </mxCell>
        <mxCell id="O9Zofe9HGtcKiM1Daw7x-36" value="图例：" style="text;html=1;strokeColor=none;fillColor=none;align=left;verticalAlign=middle;whiteSpace=wrap;fontSize=12;" vertex="1" parent="1">
          <mxGeometry x="484.5" y="320" width="40" height="20" as="geometry" />
        </mxCell>
        <mxCell id="O9Zofe9HGtcKiM1Daw7x-37" value="" style="ellipse;whiteSpace=wrap;html=1;aspect=fixed;fillColor=#9B59B6;strokeColor=none;" vertex="1" parent="1">
          <mxGeometry x="489.5" y="347.5" width="15" height="15" as="geometry" />
        </mxCell>
        <mxCell id="O9Zofe9HGtcKiM1Daw7x-38" value="用户" style="text;html=1;strokeColor=none;fillColor=none;align=left;verticalAlign=middle;whiteSpace=wrap;fontSize=12;" vertex="1" parent="1">
          <mxGeometry x="509.5" y="347.5" width="40" height="20" as="geometry" />
        </mxCell>
        <mxCell id="O9Zofe9HGtcKiM1Daw7x-39" value="" style="rounded=0;whiteSpace=wrap;html=1;fillColor=#F1C40F;strokeColor=none;" vertex="1" parent="1">
          <mxGeometry x="559.5" y="350" width="15" height="15" as="geometry" />
        </mxCell>
        <mxCell id="O9Zofe9HGtcKiM1Daw7x-40" value="商品" style="text;html=1;strokeColor=none;fillColor=none;align=left;verticalAlign=middle;whiteSpace=wrap;fontSize=12;" vertex="1" parent="1">
          <mxGeometry x="584.5" y="347.5" width="40" height="20" as="geometry" />
        </mxCell>
        <mxCell id="O9Zofe9HGtcKiM1Daw7x-41" value="" style="shape=trapezoid;perimeter=trapezoidPerimeter;whiteSpace=wrap;html=1;fixedSize=1;fillColor=#E67E22;strokeColor=none;" vertex="1" parent="1">
          <mxGeometry x="634.5" y="350" width="15" height="15" as="geometry" />
        </mxCell>
        <mxCell id="O9Zofe9HGtcKiM1Daw7x-42" value="商铺" style="text;html=1;strokeColor=none;fillColor=none;align=left;verticalAlign=middle;whiteSpace=wrap;fontSize=12;" vertex="1" parent="1">
          <mxGeometry x="659.5" y="347.5" width="40" height="20" as="geometry" />
        </mxCell>
        <mxCell id="O9Zofe9HGtcKiM1Daw7x-43" value="蛋白质分子交互网络" style="text;html=1;strokeColor=none;fillColor=none;align=center;verticalAlign=middle;whiteSpace=wrap;rounded=0;fontSize=16;fontStyle=1" vertex="1" parent="1">
          <mxGeometry x="760" y="67.5" width="160" height="30" as="geometry" />
        </mxCell>
        <mxCell id="O9Zofe9HGtcKiM1Daw7x-44" value="m₁" style="ellipse;whiteSpace=wrap;html=1;aspect=fixed;fillColor=#1ABC9C;strokeColor=none;fontColor=#FFFFFF;fontSize=14;fontStyle=1" vertex="1" parent="1">
          <mxGeometry x="760" y="137.5" width="50" height="50" as="geometry" />
        </mxCell>
        <mxCell id="O9Zofe9HGtcKiM1Daw7x-45" value="m₂" style="ellipse;whiteSpace=wrap;html=1;aspect=fixed;fillColor=#3498DB;strokeColor=none;fontColor=#FFFFFF;fontSize=14;fontStyle=1" vertex="1" parent="1">
          <mxGeometry x="820" y="207.5" width="50" height="50" as="geometry" />
        </mxCell>
        <mxCell id="O9Zofe9HGtcKiM1Daw7x-46" value="m₃" style="ellipse;whiteSpace=wrap;html=1;aspect=fixed;fillColor=#9B59B6;strokeColor=none;fontColor=#FFFFFF;fontSize=14;fontStyle=1" vertex="1" parent="1">
          <mxGeometry x="900" y="137.5" width="50" height="50" as="geometry" />
        </mxCell>
        <mxCell id="O9Zofe9HGtcKiM1Daw7x-47" value="m₄" style="ellipse;whiteSpace=wrap;html=1;aspect=fixed;fillColor=#9B59B6;strokeColor=none;fontColor=#FFFFFF;fontSize=14;fontStyle=1" vertex="1" parent="1">
          <mxGeometry x="902.5" y="227.5" width="50" height="50" as="geometry" />
        </mxCell>
        <mxCell id="O9Zofe9HGtcKiM1Daw7x-48" value="" style="ellipse;whiteSpace=wrap;html=1;aspect=fixed;fillColor=#7F8C8D;strokeColor=none;" vertex="1" parent="1">
          <mxGeometry x="720" y="117.5" width="20" height="20" as="geometry" />
        </mxCell>
        <mxCell id="O9Zofe9HGtcKiM1Daw7x-49" value="" style="ellipse;whiteSpace=wrap;html=1;aspect=fixed;fillColor=#7F8C8D;strokeColor=none;" vertex="1" parent="1">
          <mxGeometry x="720" y="167.5" width="20" height="20" as="geometry" />
        </mxCell>
        <mxCell id="O9Zofe9HGtcKiM1Daw7x-50" value="" style="ellipse;whiteSpace=wrap;html=1;aspect=fixed;fillColor=#7F8C8D;strokeColor=none;" vertex="1" parent="1">
          <mxGeometry x="760" y="97.5" width="20" height="20" as="geometry" />
        </mxCell>
        <mxCell id="O9Zofe9HGtcKiM1Daw7x-51" value="" style="ellipse;whiteSpace=wrap;html=1;aspect=fixed;fillColor=#7F8C8D;strokeColor=none;" vertex="1" parent="1">
          <mxGeometry x="780" y="257.5" width="20" height="20" as="geometry" />
        </mxCell>
        <mxCell id="O9Zofe9HGtcKiM1Daw7x-52" value="" style="ellipse;whiteSpace=wrap;html=1;aspect=fixed;fillColor=#7F8C8D;strokeColor=none;" vertex="1" parent="1">
          <mxGeometry x="820" y="267.5" width="20" height="20" as="geometry" />
        </mxCell>
        <mxCell id="O9Zofe9HGtcKiM1Daw7x-53" value="" style="ellipse;whiteSpace=wrap;html=1;aspect=fixed;fillColor=#7F8C8D;strokeColor=none;" vertex="1" parent="1">
          <mxGeometry x="860" y="257.5" width="20" height="20" as="geometry" />
        </mxCell>
        <mxCell id="O9Zofe9HGtcKiM1Daw7x-54" value="" style="ellipse;whiteSpace=wrap;html=1;aspect=fixed;fillColor=#7F8C8D;strokeColor=none;" vertex="1" parent="1">
          <mxGeometry x="930" y="117.5" width="20" height="20" as="geometry" />
        </mxCell>
        <mxCell id="O9Zofe9HGtcKiM1Daw7x-56" value="" style="endArrow=none;html=1;rounded=0;strokeWidth=2;strokeColor=#95A5A6;" edge="1" parent="1" source="O9Zofe9HGtcKiM1Daw7x-44" target="O9Zofe9HGtcKiM1Daw7x-45">
          <mxGeometry width="50" height="50" relative="1" as="geometry">
            <mxPoint x="790" y="397.5" as="sourcePoint" />
            <mxPoint x="840" y="347.5" as="targetPoint" />
          </mxGeometry>
        </mxCell>
        <mxCell id="O9Zofe9HGtcKiM1Daw7x-57" value="" style="endArrow=none;html=1;rounded=0;strokeWidth=2;strokeColor=#95A5A6;" edge="1" parent="1" source="O9Zofe9HGtcKiM1Daw7x-45" target="O9Zofe9HGtcKiM1Daw7x-46">
          <mxGeometry width="50" height="50" relative="1" as="geometry">
            <mxPoint x="790" y="397.5" as="sourcePoint" />
            <mxPoint x="840" y="347.5" as="targetPoint" />
          </mxGeometry>
        </mxCell>
        <mxCell id="O9Zofe9HGtcKiM1Daw7x-58" value="" style="endArrow=none;html=1;rounded=0;strokeWidth=2;strokeColor=#95A5A6;" edge="1" parent="1" source="O9Zofe9HGtcKiM1Daw7x-45" target="O9Zofe9HGtcKiM1Daw7x-47">
          <mxGeometry width="50" height="50" relative="1" as="geometry">
            <mxPoint x="790" y="397.5" as="sourcePoint" />
            <mxPoint x="840" y="347.5" as="targetPoint" />
          </mxGeometry>
        </mxCell>
        <mxCell id="O9Zofe9HGtcKiM1Daw7x-59" value="" style="endArrow=none;html=1;rounded=0;strokeWidth=2;strokeColor=#95A5A6;" edge="1" parent="1" source="O9Zofe9HGtcKiM1Daw7x-44" target="O9Zofe9HGtcKiM1Daw7x-48">
          <mxGeometry width="50" height="50" relative="1" as="geometry">
            <mxPoint x="790" y="397.5" as="sourcePoint" />
            <mxPoint x="840" y="347.5" as="targetPoint" />
          </mxGeometry>
        </mxCell>
        <mxCell id="O9Zofe9HGtcKiM1Daw7x-60" value="" style="endArrow=none;html=1;rounded=0;strokeWidth=2;strokeColor=#95A5A6;" edge="1" parent="1" source="O9Zofe9HGtcKiM1Daw7x-44" target="O9Zofe9HGtcKiM1Daw7x-49">
          <mxGeometry width="50" height="50" relative="1" as="geometry">
            <mxPoint x="790" y="397.5" as="sourcePoint" />
            <mxPoint x="840" y="347.5" as="targetPoint" />
          </mxGeometry>
        </mxCell>
        <mxCell id="O9Zofe9HGtcKiM1Daw7x-61" value="" style="endArrow=none;html=1;rounded=0;strokeWidth=2;strokeColor=#95A5A6;" edge="1" parent="1" source="O9Zofe9HGtcKiM1Daw7x-44" target="O9Zofe9HGtcKiM1Daw7x-50">
          <mxGeometry width="50" height="50" relative="1" as="geometry">
            <mxPoint x="790" y="397.5" as="sourcePoint" />
            <mxPoint x="840" y="347.5" as="targetPoint" />
          </mxGeometry>
        </mxCell>
        <mxCell id="O9Zofe9HGtcKiM1Daw7x-62" value="" style="endArrow=none;html=1;rounded=0;strokeWidth=2;strokeColor=#95A5A6;" edge="1" parent="1" source="O9Zofe9HGtcKiM1Daw7x-45" target="O9Zofe9HGtcKiM1Daw7x-51">
          <mxGeometry width="50" height="50" relative="1" as="geometry">
            <mxPoint x="790" y="397.5" as="sourcePoint" />
            <mxPoint x="840" y="347.5" as="targetPoint" />
          </mxGeometry>
        </mxCell>
        <mxCell id="O9Zofe9HGtcKiM1Daw7x-63" value="" style="endArrow=none;html=1;rounded=0;strokeWidth=2;strokeColor=#95A5A6;" edge="1" parent="1" source="O9Zofe9HGtcKiM1Daw7x-45" target="O9Zofe9HGtcKiM1Daw7x-52">
          <mxGeometry width="50" height="50" relative="1" as="geometry">
            <mxPoint x="790" y="397.5" as="sourcePoint" />
            <mxPoint x="840" y="347.5" as="targetPoint" />
          </mxGeometry>
        </mxCell>
        <mxCell id="O9Zofe9HGtcKiM1Daw7x-64" value="" style="endArrow=none;html=1;rounded=0;strokeWidth=2;strokeColor=#95A5A6;" edge="1" parent="1" source="O9Zofe9HGtcKiM1Daw7x-45" target="O9Zofe9HGtcKiM1Daw7x-53">
          <mxGeometry width="50" height="50" relative="1" as="geometry">
            <mxPoint x="790" y="397.5" as="sourcePoint" />
            <mxPoint x="840" y="347.5" as="targetPoint" />
          </mxGeometry>
        </mxCell>
        <mxCell id="O9Zofe9HGtcKiM1Daw7x-65" value="" style="endArrow=none;html=1;rounded=0;strokeWidth=2;strokeColor=#95A5A6;" edge="1" parent="1" source="O9Zofe9HGtcKiM1Daw7x-46" target="O9Zofe9HGtcKiM1Daw7x-54">
          <mxGeometry width="50" height="50" relative="1" as="geometry">
            <mxPoint x="790" y="397.5" as="sourcePoint" />
            <mxPoint x="840" y="347.5" as="targetPoint" />
          </mxGeometry>
        </mxCell>
        <mxCell id="O9Zofe9HGtcKiM1Daw7x-67" value="图例：" style="text;html=1;strokeColor=none;fillColor=none;align=left;verticalAlign=middle;whiteSpace=wrap;fontSize=12;" vertex="1" parent="1">
          <mxGeometry x="760" y="317.5" width="40" height="20" as="geometry" />
        </mxCell>
        <mxCell id="O9Zofe9HGtcKiM1Daw7x-68" value="" style="ellipse;whiteSpace=wrap;html=1;aspect=fixed;fillColor=#1ABC9C;strokeColor=none;" vertex="1" parent="1">
          <mxGeometry x="760" y="347.5" width="15" height="15" as="geometry" />
        </mxCell>
        <mxCell id="O9Zofe9HGtcKiM1Daw7x-69" value="分子 m₁" style="text;html=1;strokeColor=none;fillColor=none;align=left;verticalAlign=middle;whiteSpace=wrap;fontSize=12;" vertex="1" parent="1">
          <mxGeometry x="785" y="345" width="50" height="20" as="geometry" />
        </mxCell>
        <mxCell id="O9Zofe9HGtcKiM1Daw7x-70" value="" style="ellipse;whiteSpace=wrap;html=1;aspect=fixed;fillColor=#3498DB;strokeColor=none;" vertex="1" parent="1">
          <mxGeometry x="840" y="347.5" width="15" height="15" as="geometry" />
        </mxCell>
        <mxCell id="O9Zofe9HGtcKiM1Daw7x-71" value="分子 m₂" style="text;html=1;strokeColor=none;fillColor=none;align=left;verticalAlign=middle;whiteSpace=wrap;fontSize=12;" vertex="1" parent="1">
          <mxGeometry x="865" y="345" width="50" height="20" as="geometry" />
        </mxCell>
        <mxCell id="O9Zofe9HGtcKiM1Daw7x-72" value="" style="ellipse;whiteSpace=wrap;html=1;aspect=fixed;fillColor=#9B59B6;strokeColor=none;" vertex="1" parent="1">
          <mxGeometry x="920" y="347.5" width="15" height="15" as="geometry" />
        </mxCell>
        <mxCell id="O9Zofe9HGtcKiM1Daw7x-73" value="分子 m₃, m₄" style="text;html=1;strokeColor=none;fillColor=none;align=left;verticalAlign=middle;whiteSpace=wrap;fontSize=12;" vertex="1" parent="1">
          <mxGeometry x="945" y="345" width="70" height="20" as="geometry" />
        </mxCell>
      </root>
    </mxGraphModel>
  </diagram>
</mxfile>
